<svg width="111" height="44" viewBox="0 0 111 44" fill="none" xmlns="http://www.w3.org/2000/svg">
<path fill-rule="evenodd" clip-rule="evenodd" d="M18.0282 8.10282C18.2006 8.1329 18.3635 8.20165 18.5043 8.3037C18.645 8.40576 18.7598 8.53834 18.8396 8.69109C18.9193 8.84383 18.962 9.01259 18.9641 9.18417C18.9663 9.35574 18.9279 9.52548 18.8519 9.6801L24.7106 15.2467L24.483 15.4802L18.6642 9.95143C18.5615 10.0618 18.4368 10.1505 18.2978 10.2119C18.1589 10.2733 18.0085 10.3063 17.8561 10.3087C17.7037 10.3111 17.5523 10.2829 17.4114 10.2259C17.2705 10.1689 17.143 10.0842 17.0367 9.9771L11.2453 15.4771L11.0177 15.2437L16.8415 9.71066C16.7555 9.5518 16.7108 9.37468 16.7112 9.19488C16.7117 8.92524 16.8123 8.665 16.9942 8.46263C17.176 8.26026 17.4267 8.12956 17.6995 8.09488V9.97121e-05H18.0282V8.10282ZM40.4776 28.3172V33.0123C40.4666 34.4502 40.7461 35.876 41.3 37.2075C41.8539 38.5391 42.6712 39.75 43.7049 40.7706C44.7385 41.7912 45.9681 42.6012 47.3226 43.1539C48.6772 43.7067 50.13 43.9913 51.5973 43.9913C53.0646 43.9913 54.5174 43.7067 55.8719 43.1539C57.2265 42.6012 58.456 41.7912 59.4897 40.7706C60.5233 39.75 61.3406 38.5391 61.8945 37.2075C62.4484 35.876 62.7279 34.4502 62.7169 33.0123V28.3172C62.7036 25.7942 61.8003 23.3533 60.1602 21.4085C61.8162 19.5156 62.7235 17.1027 62.7169 14.6093V10.9653C62.7279 9.52738 62.4484 8.10158 61.8945 6.77004C61.3406 5.4385 60.5233 4.22756 59.4897 3.20699C58.456 2.18642 57.2265 1.37642 55.8719 0.823663C54.5174 0.270907 53.0646 -0.0136719 51.5973 -0.0136719C50.13 -0.0136719 48.6772 0.270907 47.3226 0.823663C45.9681 1.37642 44.7385 2.18642 43.7049 3.20699C42.6712 4.22756 41.8539 5.4385 41.3 6.77004C40.7461 8.10158 40.4666 9.52738 40.4776 10.9653V14.6093C40.4332 17.0901 41.3016 19.5037 42.924 21.4085C41.3169 23.3644 40.4523 25.8062 40.4776 28.3172ZM48.817 14.6093V10.9653C48.8122 10.6054 48.8808 10.2482 49.0186 9.91466C49.1564 9.58108 49.3607 9.27778 49.6196 9.02251C49.8784 8.76724 50.1866 8.56512 50.5262 8.42798C50.8657 8.29084 51.2297 8.22144 51.5969 8.22382C52.3329 8.23757 53.0345 8.53134 53.5533 9.04299C54.0721 9.55463 54.3675 10.244 54.3769 10.9653V14.6093C54.3677 15.3307 54.0724 16.0202 53.5535 16.532C53.0347 17.0438 52.333 17.3376 51.5969 17.3514C51.2297 17.3538 50.8656 17.2843 50.526 17.1472C50.1865 17.01 49.8782 16.8078 49.6193 16.5525C49.3605 16.2971 49.1562 15.9938 49.0184 15.6601C48.8806 15.3265 48.8121 14.9692 48.817 14.6093ZM48.817 33.0123V28.3172C48.8123 27.9574 48.8809 27.6003 49.0188 27.2667C49.1566 26.9332 49.3609 26.63 49.6198 26.3748C49.8787 26.1196 50.1868 25.9175 50.5263 25.7804C50.8658 25.6433 51.2298 25.5739 51.5969 25.5763C52.3328 25.5899 53.0344 25.8836 53.5533 26.3951C54.0721 26.9066 54.3675 27.596 54.3769 28.3172V33.0123C54.3675 33.7336 54.0721 34.423 53.5533 34.9346C53.0345 35.4462 52.3329 35.74 51.5969 35.7538C51.2297 35.7562 50.8657 35.6867 50.5262 35.5496C50.1866 35.4125 49.8784 35.2103 49.6196 34.9551C49.3607 34.6998 49.1564 34.3965 49.0186 34.0629C48.8808 33.7293 48.8122 33.3722 48.817 33.0123ZM13.8956 33.0123C13.9011 33.3735 13.8333 33.7321 13.6961 34.0673C13.5589 34.4026 13.355 34.7077 13.0964 34.965C12.8377 35.2224 12.5294 35.4267 12.1894 35.5662C11.8494 35.7056 11.4845 35.7775 11.1159 35.7775C10.7474 35.7775 10.3825 35.7056 10.0425 35.5662C9.70249 35.4267 9.39418 35.2224 9.13552 34.965C8.87685 34.7077 8.67298 34.4026 8.53577 34.0673C8.39855 33.7321 8.33075 33.3735 8.33627 33.0123V17.5109H3.76275e-05V33.0123C-0.0104031 34.4505 0.269406 35.8764 0.823359 37.2082C1.37731 38.54 2.19447 39.7513 3.22786 40.7724C4.26125 41.7936 5.49046 42.6045 6.84478 43.1584C8.19911 43.7123 9.65182 43.9984 11.1194 44.0001C13.6727 44.0171 16.1514 43.1569 18.1248 41.5691C20.0557 43.1552 22.4992 44.0169 25.0187 44.0001C26.4889 44.0076 27.9459 43.7279 29.3045 43.1772C30.6631 42.6266 31.8961 41.816 32.9314 40.793C33.9666 39.77 34.7834 38.555 35.334 37.219C35.8846 35.8831 36.1579 34.453 36.138 33.0123V17.5109H27.7987V33.0123C27.7987 33.7349 27.5058 34.4278 26.9844 34.9387C26.4631 35.4496 25.756 35.7367 25.0187 35.7367C24.2814 35.7367 23.5743 35.4496 23.0529 34.9387C22.5316 34.4278 22.2387 33.7349 22.2387 33.0123V17.5109H13.8994V33.0123H13.8956ZM70.1003 24.8375C70.1053 25.1089 70.0484 25.3781 69.9338 25.6252C69.8248 25.8535 69.6629 26.0538 69.4611 26.21C69.2439 26.3746 68.9964 26.4966 68.7321 26.5694C68.4293 26.6536 68.1158 26.6948 67.8011 26.6916C67.6018 26.6915 67.4028 26.6753 67.2062 26.6433C67.0347 26.6143 66.8655 26.5734 66.6998 26.5211C66.5685 26.4801 66.4408 26.4286 66.3182 26.3671C66.2373 26.3275 66.1611 26.2791 66.0912 26.2229C66.0398 26.1739 66.0036 26.1116 65.987 26.0432C65.9617 25.9402 65.9506 25.8344 65.954 25.7285C65.9532 25.6596 65.9576 25.5908 65.9671 25.5225C65.9734 25.4771 65.9845 25.4325 66.0001 25.3893C66.0086 25.3606 66.0265 25.3355 66.0511 25.3179C66.0757 25.3003 66.1056 25.2913 66.1361 25.2922C66.2136 25.3027 66.287 25.333 66.3487 25.3802C66.4423 25.4376 66.5558 25.5024 66.6936 25.569C66.8492 25.6446 67.0108 25.7075 67.1769 25.7572C67.3857 25.8188 67.603 25.8483 67.821 25.8446C67.9879 25.8464 68.1543 25.8271 68.3162 25.7872C68.4534 25.7528 68.5834 25.6951 68.7003 25.6167C68.8064 25.5438 68.8921 25.4461 68.9497 25.3325C69.0125 25.2041 69.0432 25.0629 69.0395 24.9206C69.0447 24.7743 69.0009 24.6303 68.9148 24.5105C68.8225 24.393 68.709 24.2929 68.58 24.2154C68.4309 24.1249 68.2735 24.0484 68.1098 23.9868C67.9377 23.9214 67.7574 23.8518 67.5728 23.7797C67.3889 23.706 67.2089 23.6234 67.0334 23.5322C66.8604 23.4427 66.7016 23.3291 66.562 23.1948C66.4206 23.0584 66.307 22.8968 66.2271 22.7188C66.1382 22.5097 66.0957 22.2845 66.1024 22.0582C66.102 21.8347 66.1471 21.6134 66.2352 21.4073C66.3253 21.1987 66.4619 21.0124 66.6349 20.8622C66.8306 20.6968 67.0569 20.5698 67.3016 20.4882C67.7541 20.3441 68.2353 20.3087 68.7047 20.3849C68.848 20.4061 68.9894 20.4386 69.1275 20.4821C69.2387 20.512 69.3465 20.553 69.4492 20.6043C69.5202 20.6374 69.5878 20.6769 69.6513 20.7223C69.6867 20.7468 69.7175 20.7772 69.7423 20.8121C69.7583 20.8392 69.7697 20.8688 69.776 20.8995C69.7829 20.93 69.7872 20.9692 69.7935 21.018C69.801 21.0754 69.8046 21.1332 69.8041 21.191C69.8045 21.2539 69.801 21.3168 69.7935 21.3792C69.7898 21.4242 69.7795 21.4685 69.7629 21.5106C69.7517 21.5401 69.7322 21.5659 69.7068 21.5852C69.6864 21.5999 69.6617 21.6079 69.6363 21.6078C69.5741 21.5999 69.5151 21.5758 69.4654 21.5381C69.3737 21.4826 69.2786 21.4328 69.1805 21.389C69.0452 21.33 68.9063 21.2794 68.7645 21.2374C68.5884 21.189 68.4062 21.1654 68.2233 21.1672C68.0606 21.1641 67.8984 21.1847 67.7418 21.2283C67.6166 21.2626 67.4997 21.3214 67.3982 21.4012C67.3117 21.4746 67.2427 21.5658 67.1962 21.6683C67.1512 21.7737 67.1285 21.887 67.1295 22.0013C67.1244 22.1515 67.1697 22.2992 67.2585 22.4218C67.3518 22.5408 67.4671 22.6416 67.5984 22.7188C67.7486 22.8106 67.9071 22.889 68.0717 22.9528C68.2507 23.0194 68.4315 23.0897 68.6161 23.1624C68.8007 23.2352 68.9822 23.317 69.163 23.4069C69.3374 23.4933 69.4986 23.6031 69.6419 23.7332C69.7819 23.8652 69.8951 24.022 69.9756 24.1952C70.0648 24.398 70.1086 24.6173 70.104 24.8381L70.1003 24.8375ZM76.678 26.4093C76.6793 26.4398 76.6698 26.4698 76.6511 26.4942C76.6296 26.522 76.6004 26.5432 76.567 26.5553C76.5155 26.5765 76.461 26.5899 76.4054 26.595C76.3192 26.6052 76.2323 26.6097 76.1454 26.6085C76.0556 26.6098 75.9658 26.6053 75.8766 26.595C75.8211 26.5899 75.7666 26.5765 75.7151 26.5553C75.6818 26.5427 75.6526 26.5216 75.6303 26.4942C75.6115 26.4698 75.6018 26.4398 75.6029 26.4093V23.028C75.6105 22.7611 75.5845 22.4942 75.5256 22.2335C75.4816 22.0482 75.405 21.8718 75.2992 21.7123C75.2024 21.5695 75.0682 21.4549 74.9107 21.3804C74.7394 21.2999 74.5512 21.2599 74.3613 21.2637C74.0691 21.2714 73.787 21.3703 73.5562 21.546C73.2358 21.7815 72.9511 22.0603 72.7106 22.3741V26.4074C72.7119 26.4381 72.7019 26.4682 72.6826 26.4924C72.6603 26.5197 72.6311 26.5408 72.5978 26.5535C72.5463 26.5748 72.4919 26.5882 72.4363 26.5932C72.3473 26.6035 72.2577 26.608 72.1681 26.6067C72.0812 26.6079 71.9944 26.6034 71.9081 26.5932C71.8515 26.5878 71.7961 26.5744 71.7435 26.5535C71.7091 26.5431 71.6794 26.5215 71.6593 26.4924C71.6422 26.4673 71.6337 26.4376 71.6349 26.4074V17.8372C71.6337 17.8057 71.6422 17.7747 71.6593 17.748C71.6781 17.7165 71.7081 17.6928 71.7435 17.6814C71.7966 17.6624 71.8519 17.6499 71.9081 17.6441C71.9944 17.634 72.0812 17.6295 72.1681 17.6307C72.2577 17.6293 72.3473 17.6338 72.4363 17.6441C72.4915 17.6495 72.5458 17.6621 72.5978 17.6814C72.632 17.6951 72.6614 17.7183 72.6826 17.748C72.702 17.7737 72.7119 17.8052 72.7106 17.8372V21.2961C72.9753 21.0056 73.2901 20.763 73.6404 20.5793C73.9306 20.4283 74.2536 20.3481 74.5821 20.3452C74.9216 20.3348 75.259 20.4021 75.5673 20.542C75.8232 20.6623 76.0458 20.8411 76.2165 21.0633C76.3853 21.2929 76.5052 21.5535 76.5688 21.8296C76.6481 22.1781 76.6847 22.5347 76.678 22.8917V26.4099V26.4093ZM79.7105 26.4093C79.7117 26.4399 79.7018 26.47 79.6824 26.4942C79.6609 26.5215 79.6323 26.5427 79.5995 26.5553C79.5475 26.5762 79.4927 26.5896 79.4368 26.595C79.3478 26.6053 79.2582 26.6098 79.1686 26.6085C79.0815 26.6097 78.9944 26.6052 78.9079 26.595C78.8517 26.5899 78.7967 26.5765 78.7446 26.5553C78.7097 26.5449 78.6795 26.5234 78.6585 26.4942C78.6422 26.4688 78.634 26.4392 78.6348 26.4093V20.6337C78.635 20.6046 78.6432 20.5761 78.6585 20.5512C78.6785 20.5211 78.7092 20.4993 78.7446 20.49C78.7968 20.4691 78.8518 20.4558 78.9079 20.4503C78.9945 20.4409 79.0815 20.4366 79.1686 20.4375C79.2582 20.4365 79.3477 20.4407 79.4368 20.4503C79.4926 20.4561 79.5474 20.4694 79.5995 20.49C79.6329 20.5016 79.6619 20.5229 79.6824 20.5512C79.7007 20.575 79.7105 20.6039 79.7105 20.6337V26.4099V26.4093ZM79.8321 18.683C79.8541 18.8637 79.8028 19.0456 79.6893 19.1896C79.5298 19.2766 79.3502 19.3223 79.1677 19.3223C78.9851 19.3223 78.8055 19.2766 78.646 19.1896C78.535 19.048 78.4848 18.8695 78.5063 18.6922C78.4845 18.512 78.5353 18.3307 78.6479 18.1868C78.8002 18.0793 78.9876 18.0308 79.1742 18.0505C79.3576 18.0302 79.5421 18.077 79.6924 18.1819C79.8029 18.324 79.853 18.5025 79.8321 18.6799V18.683ZM87.0814 23.4313C87.0871 23.8898 87.0309 24.347 86.9143 24.791C86.821 25.1603 86.6558 25.5085 86.4279 25.8165C86.2179 26.0908 85.9452 26.3129 85.6315 26.4649C85.2908 26.621 84.9182 26.6989 84.5421 26.6928C84.3807 26.6941 84.2197 26.6762 84.0626 26.6397C83.9117 26.6056 83.7661 26.5517 83.6298 26.4795C83.4802 26.4024 83.3393 26.31 83.2095 26.2039C83.0698 26.0921 82.9239 25.9595 82.768 25.811V28.7009C82.7682 28.7328 82.7588 28.764 82.7412 28.7908C82.7188 28.8174 82.6901 28.8384 82.6576 28.8519C82.6056 28.8728 82.5508 28.8862 82.4949 28.8916C82.4055 28.8999 82.3158 28.9038 82.2261 28.9032C82.1393 28.9036 82.0525 28.8997 81.9661 28.8916C81.9097 28.8865 81.8544 28.8732 81.8021 28.8519C81.7678 28.841 81.7381 28.8195 81.7172 28.7908C81.7016 28.7633 81.6935 28.7324 81.6935 28.7009V20.6343C81.6917 20.6024 81.6983 20.5706 81.7129 20.542C81.7314 20.5141 81.7585 20.4927 81.7902 20.4809C81.8384 20.4609 81.8896 20.449 81.9417 20.4454C82.0146 20.4376 82.0879 20.4339 82.1612 20.4344C82.2366 20.4337 82.312 20.4374 82.387 20.4454C82.4373 20.449 82.4867 20.461 82.5329 20.4809C82.5657 20.493 82.5941 20.5142 82.6146 20.542C82.6308 20.57 82.6384 20.6021 82.6364 20.6343V21.4116C82.7975 21.2447 82.9696 21.0884 83.1515 20.9435C83.3056 20.8164 83.4728 20.7054 83.6504 20.6123C83.8125 20.5255 83.9848 20.4586 84.1636 20.413C84.3458 20.3666 84.5334 20.3438 84.7217 20.3452C85.099 20.334 85.4729 20.4181 85.8074 20.5897C86.1032 20.7493 86.354 20.9781 86.5376 21.2558C86.7342 21.5574 86.8742 21.891 86.9511 22.2409C87.0408 22.6315 87.0841 23.0309 87.0814 23.4313ZM85.9477 23.5535C85.9482 23.2671 85.9259 22.981 85.881 22.698C85.8416 22.4419 85.7625 22.1931 85.6465 21.9604C85.5424 21.7566 85.3891 21.5809 85.2 21.4483C84.9937 21.3157 84.7506 21.2489 84.5041 21.257C84.3649 21.257 84.2266 21.2776 84.0938 21.3181C83.9497 21.3648 83.8126 21.4299 83.6859 21.5118C83.5291 21.6129 83.3829 21.729 83.2494 21.8583C83.0774 22.0242 82.917 22.2012 82.7692 22.3882V24.6859C83.0121 24.9917 83.2942 25.2655 83.6086 25.5005C83.8478 25.6801 84.1398 25.779 84.4411 25.7823C84.6869 25.7884 84.9288 25.721 85.1345 25.5892C85.33 25.4566 85.4905 25.2805 85.6029 25.0752C85.7264 24.8498 85.8149 24.6076 85.8654 24.3565C85.9219 24.0929 85.9499 23.8242 85.949 23.5548L85.9477 23.5535ZM94.0813 23.4313C94.0872 23.8898 94.0311 24.3471 93.9142 24.791C93.821 25.1602 93.6563 25.5083 93.429 25.8165C93.2185 26.091 92.9451 26.3131 92.6308 26.4649C92.2903 26.6211 91.9179 26.6991 91.542 26.6928C91.3809 26.6941 91.2203 26.6762 91.0637 26.6397C90.9114 26.6061 90.7645 26.5522 90.6272 26.4795C90.4777 26.4026 90.337 26.3102 90.2075 26.2039C90.0678 26.0921 89.9206 25.9595 89.7654 25.811V28.7009C89.7654 28.7327 89.7564 28.7638 89.7392 28.7908C89.7166 28.8176 89.6877 28.8386 89.655 28.8519C89.6031 28.873 89.5482 28.8864 89.4922 28.8916C89.4029 28.8999 89.3132 28.9037 89.2235 28.9032C89.1368 28.9036 89.0503 28.8997 88.964 28.8916C88.9073 28.8862 88.8516 28.8729 88.7988 28.8519C88.7651 28.8406 88.7358 28.8192 88.7152 28.7908C88.6994 28.7634 88.691 28.7324 88.6909 28.7009V20.6343C88.6895 20.6024 88.6961 20.5707 88.7102 20.542C88.7295 20.5142 88.7569 20.4929 88.7888 20.4809C88.8367 20.4609 88.8877 20.4489 88.9397 20.4454C89.0873 20.4305 89.2361 20.4305 89.3837 20.4454C89.4343 20.449 89.4838 20.461 89.5303 20.4809C89.5632 20.493 89.5918 20.5142 89.6126 20.542C89.6296 20.5697 89.6374 20.602 89.635 20.6343V21.4116C89.7962 21.2447 89.9682 21.0884 90.1501 20.9435C90.3038 20.8158 90.471 20.7048 90.649 20.6123C90.8133 20.5242 90.9883 20.4567 91.1697 20.4112C91.3517 20.3648 91.5391 20.342 91.7272 20.3434C92.1047 20.3321 92.4788 20.4162 92.8135 20.5878C93.1083 20.7482 93.3578 20.9779 93.5394 21.2564C93.7359 21.558 93.8759 21.8916 93.9528 22.2415C94.0425 22.6321 94.0864 23.0315 94.0838 23.4319L94.0813 23.4313ZM92.9482 23.5535C92.9494 23.2671 92.9271 22.981 92.8815 22.698C92.842 22.4417 92.7625 22.1929 92.6457 21.9604C92.5423 21.7566 92.3894 21.5807 92.2005 21.4483C91.9942 21.3157 91.7511 21.2489 91.5046 21.257C91.3652 21.257 91.2267 21.2777 91.0936 21.3181C90.9494 21.3648 90.812 21.4299 90.6852 21.5118C90.529 21.6138 90.3829 21.7298 90.2486 21.8583C90.0774 22.0247 89.9172 22.2017 89.7691 22.3882V24.6859C90.0121 24.9916 90.2942 25.2654 90.6085 25.5005C90.8478 25.6801 91.1401 25.779 91.4416 25.7823C91.6872 25.7884 91.9289 25.7211 92.1344 25.5892C92.33 25.4566 92.4908 25.2805 92.6033 25.0752C92.7264 24.8496 92.8146 24.6075 92.8653 24.3565C92.9222 24.093 92.9504 23.8242 92.9494 23.5548L92.9482 23.5535ZM96.8862 26.4099C96.8868 26.4402 96.8777 26.4699 96.86 26.4948C96.8376 26.5218 96.8087 26.5428 96.7758 26.5559C96.7242 26.5774 96.6695 26.5908 96.6137 26.5957C96.5243 26.606 96.4343 26.6105 96.3443 26.6091C96.2574 26.6095 96.1706 26.605 96.0843 26.5957C96.0279 26.5904 95.9726 26.577 95.9202 26.5559C95.8864 26.5442 95.8569 26.523 95.8354 26.4948C95.8198 26.4691 95.8117 26.4398 95.8118 26.4099V20.6337C95.8123 20.6046 95.8205 20.5762 95.8354 20.5512C95.856 20.5221 95.8858 20.5006 95.9202 20.49C95.9729 20.4698 96.028 20.4565 96.0843 20.4503C96.1706 20.4409 96.2574 20.4366 96.3443 20.4375C96.4343 20.4364 96.5242 20.4407 96.6137 20.4503C96.6693 20.4563 96.7239 20.4697 96.7758 20.49C96.8091 20.5024 96.8382 20.5236 96.86 20.5512C96.8771 20.5754 96.8862 20.6042 96.8862 20.6337V26.4099ZM97.0109 18.6836C97.0322 18.8642 96.981 19.0459 96.8681 19.1902C96.7156 19.2966 96.5285 19.3443 96.3424 19.324C96.1591 19.3444 95.9745 19.2976 95.8242 19.1927C95.7132 19.051 95.6629 18.8726 95.6839 18.6952C95.6624 18.5149 95.7136 18.3336 95.8267 18.1898C95.9856 18.1014 96.165 18.0545 96.3477 18.0536C96.5304 18.0528 96.7103 18.098 96.87 18.1849C96.9812 18.3267 97.0318 18.5053 97.0109 18.683V18.6836ZM103.915 26.4099C103.916 26.4404 103.906 26.4703 103.887 26.4948C103.866 26.5223 103.837 26.5434 103.804 26.5559C103.752 26.5771 103.698 26.5905 103.642 26.5957C103.555 26.605 103.468 26.6095 103.382 26.6091C103.292 26.6096 103.202 26.6052 103.113 26.5957C103.057 26.5909 103.003 26.5775 102.951 26.5559C102.918 26.5431 102.888 26.5221 102.866 26.4948C102.848 26.47 102.839 26.4402 102.84 26.4099V23.028C102.846 22.7611 102.82 22.4944 102.762 22.2335C102.718 22.0483 102.641 21.872 102.535 21.7123C102.438 21.5693 102.304 21.4547 102.146 21.3804C101.975 21.2999 101.787 21.2599 101.597 21.2637C101.305 21.2718 101.023 21.3707 100.792 21.546C100.472 21.7817 100.187 22.0605 99.9468 22.3741V26.4074C99.9473 26.4379 99.9377 26.4677 99.9194 26.4924C99.8974 26.5197 99.8683 26.5408 99.8352 26.5535C99.7836 26.5751 99.7289 26.5885 99.673 26.5932C99.5839 26.6035 99.4941 26.608 99.4043 26.6067C99.3174 26.607 99.2306 26.6026 99.1442 26.5932C99.0879 26.588 99.0326 26.5746 98.9802 26.5535C98.9462 26.5419 98.9164 26.5206 98.8948 26.4924C98.8795 26.4666 98.8713 26.4373 98.8711 26.4074V20.6337C98.87 20.6032 98.8766 20.573 98.8904 20.5457C98.9109 20.5194 98.9377 20.4984 98.9684 20.4845C99.0161 20.4633 99.0675 20.4508 99.1199 20.4479C99.2786 20.433 99.4383 20.433 99.597 20.4479C99.6483 20.4499 99.6986 20.4624 99.7448 20.4845C99.7739 20.4993 99.7995 20.5202 99.8196 20.5457C99.835 20.5725 99.8426 20.6029 99.8414 20.6337V21.3988C100.119 21.0766 100.453 20.8057 100.827 20.5988C101.132 20.4365 101.472 20.3495 101.818 20.3452C102.158 20.3357 102.496 20.403 102.805 20.542C103.061 20.6626 103.282 20.8414 103.453 21.0633C103.622 21.2929 103.742 21.5535 103.806 21.8296C103.885 22.1762 103.921 22.5306 103.915 22.8856V26.4099ZM111 20.8964C111.007 21.0082 110.986 21.12 110.938 21.2215C110.922 21.2506 110.899 21.2752 110.871 21.2929C110.843 21.3106 110.811 21.3207 110.777 21.3224H109.94C110.084 21.4654 110.193 21.6392 110.258 21.8302C110.319 22.0188 110.35 22.2154 110.349 22.4132C110.355 22.7156 110.3 23.0161 110.187 23.2975C110.085 23.5461 109.926 23.7686 109.723 23.9483C109.513 24.1299 109.268 24.2683 109.003 24.3553C108.705 24.4531 108.393 24.5013 108.08 24.4977C107.85 24.4984 107.621 24.4669 107.4 24.4042C107.22 24.3586 107.05 24.2789 106.901 24.1695C106.822 24.2462 106.757 24.335 106.707 24.4323C106.656 24.5393 106.631 24.6565 106.635 24.7745C106.635 24.8489 106.655 24.9219 106.692 24.9868C106.728 25.0518 106.781 25.1066 106.846 25.1461C107.013 25.2521 107.208 25.3079 107.407 25.3068L108.938 25.3679C109.208 25.3749 109.476 25.4145 109.736 25.4859C109.964 25.5498 110.178 25.6533 110.368 25.7914C110.543 25.9182 110.686 26.0831 110.785 26.273C110.888 26.4793 110.939 26.7069 110.934 26.9367C110.935 27.1984 110.877 27.4571 110.765 27.6944C110.646 27.9421 110.468 28.1585 110.247 28.3257C109.982 28.5249 109.68 28.6716 109.358 28.7578C108.943 28.8684 108.514 28.9205 108.084 28.9124C107.678 28.9193 107.273 28.8798 106.876 28.7944C106.588 28.7328 106.312 28.6232 106.062 28.4705C105.865 28.3517 105.706 28.1827 105.6 27.9817C105.503 27.7889 105.453 27.5768 105.455 27.362C105.457 27.2229 105.476 27.0846 105.512 26.9501C105.547 26.8172 105.6 26.6896 105.671 26.5712C105.746 26.4467 105.837 26.3312 105.94 26.2272C106.053 26.1107 106.175 26.0024 106.305 25.9033C106.114 25.8133 105.951 25.6739 105.834 25.4999C105.734 25.3412 105.681 25.158 105.682 24.9713C105.677 24.7294 105.733 24.49 105.844 24.274C105.95 24.0712 106.086 23.8848 106.248 23.721C106.112 23.5619 106.003 23.3816 105.927 23.1875C105.844 22.9553 105.805 22.7104 105.81 22.4645C105.806 22.1614 105.864 21.8605 105.981 21.5797C106.087 21.3288 106.246 21.1033 106.449 20.9184C106.657 20.7341 106.902 20.5934 107.167 20.5047C107.462 20.4061 107.772 20.3571 108.083 20.3599C108.25 20.3588 108.416 20.368 108.582 20.3874C108.724 20.4234 108.869 20.4508 109.015 20.4693H110.785C110.82 20.4689 110.854 20.4786 110.883 20.4974C110.912 20.5161 110.935 20.5429 110.949 20.5744C110.991 20.677 111.01 20.7876 111.004 20.8983L111 20.8964ZM109.323 22.4169C109.333 22.2498 109.309 22.0825 109.253 21.9246C109.196 21.7666 109.109 21.6212 108.995 21.4965C108.87 21.3812 108.723 21.2922 108.562 21.2352C108.401 21.1782 108.23 21.1544 108.059 21.1653C107.873 21.1617 107.688 21.1969 107.517 21.2686C107.368 21.3327 107.237 21.4293 107.132 21.5509C107.03 21.6731 106.952 21.8139 106.904 21.9653C106.854 22.1235 106.828 22.2884 106.829 22.4542C106.82 22.6176 106.844 22.7812 106.901 22.9352C106.957 23.0893 107.044 23.2307 107.157 23.3513C107.28 23.4649 107.425 23.5527 107.584 23.6093C107.742 23.6658 107.911 23.6899 108.08 23.68C108.269 23.6844 108.457 23.6502 108.632 23.5798C108.78 23.5176 108.912 23.4234 109.018 23.3042C109.122 23.1852 109.2 23.0464 109.247 22.8966C109.297 22.7406 109.323 22.578 109.323 22.4144L109.323 22.4169ZM109.863 26.9923C109.867 26.8786 109.841 26.7658 109.787 26.6652C109.732 26.5645 109.653 26.4794 109.555 26.4184C109.301 26.273 109.011 26.1987 108.717 26.2039L107.2 26.1532C107.078 26.2453 106.965 26.3475 106.861 26.4588C106.78 26.5433 106.709 26.6356 106.647 26.7344C106.599 26.815 106.563 26.9023 106.541 26.9935C106.521 27.0798 106.512 27.1679 106.512 27.2563C106.511 27.3916 106.551 27.5242 106.627 27.637C106.704 27.7498 106.813 27.8377 106.94 27.8894C107.318 28.0497 107.727 28.1231 108.138 28.1039C108.413 28.1101 108.688 28.0791 108.955 28.0116C109.146 27.964 109.326 27.881 109.485 27.7672C109.611 27.6756 109.71 27.5543 109.775 27.4145C109.834 27.2815 109.864 27.1379 109.864 26.9929L109.863 26.9923Z" fill="#E3004F"/>
</svg>
